<svg xmlns="http://www.w3.org/2000/svg" viewBox="0 0 60 60" fill="none">
  <!-- Background circle -->
  <circle cx="30" cy="30" r="30" fill="#1E1E28"/>
  <!-- House dots icon, centered -->
  <g transform="translate(6, 8)">
    <!-- Row 0 -->
    <circle cx="22.5" cy="0" r="1.5" fill="#FFFFFF"/>
    <!-- Row 1 -->
    <circle cx="18" cy="4.5" r="1.5" fill="#FFFFFF"/>
    <circle cx="22.5" cy="4.5" r="1.5" fill="#FFFFFF"/>
    <circle cx="27" cy="4.5" r="1.5" fill="#FFFFFF"/>
    <!-- Row 2 -->
    <circle cx="13.5" cy="9" r="1.5" fill="#FFFFFF"/>
    <circle cx="18" cy="9" r="1.5" fill="#FFFFFF"/>
    <circle cx="22.5" cy="9" r="1.5" fill="#FFFFFF"/>
    <circle cx="27" cy="9" r="1.5" fill="#FFFFFF"/>
    <circle cx="31.5" cy="9" r="1.5" fill="#FFFFFF"/>
    <!-- Row 3 -->
    <circle cx="9" cy="13.5" r="1.5" fill="#FFFFFF"/>
    <circle cx="13.5" cy="13.5" r="1.5" fill="#FFFFFF"/>
    <circle cx="18" cy="13.5" r="1.5" fill="#FFFFFF"/>
    <circle cx="22.5" cy="13.5" r="1.5" fill="#fe5d37"/>
    <circle cx="27" cy="13.5" r="1.5" fill="#FFFFFF"/>
    <circle cx="31.5" cy="13.5" r="1.5" fill="#FFFFFF"/>
    <circle cx="36" cy="13.5" r="1.5" fill="#FFFFFF"/>
    <!-- Row 4 -->
    <circle cx="4.5" cy="18" r="1.5" fill="#FFFFFF"/>
    <circle cx="9" cy="18" r="1.5" fill="#FFFFFF"/>
    <circle cx="13.5" cy="18" r="1.5" fill="#FFFFFF"/>
    <circle cx="18" cy="18" r="1.5" fill="#fe5d37"/>
    <circle cx="22.5" cy="18" r="1.5" fill="#fe5d37"/>
    <circle cx="27" cy="18" r="1.5" fill="#fe5d37"/>
    <circle cx="31.5" cy="18" r="1.5" fill="#FFFFFF"/>
    <circle cx="36" cy="18" r="1.5" fill="#FFFFFF"/>
    <circle cx="40.5" cy="18" r="1.5" fill="#FFFFFF"/>
    <!-- Row 5 -->
    <circle cx="0" cy="22.5" r="1.5" fill="#FFFFFF"/>
    <circle cx="4.5" cy="22.5" r="1.5" fill="#FFFFFF"/>
    <circle cx="9" cy="22.5" r="1.5" fill="#FFFFFF"/>
    <circle cx="13.5" cy="22.5" r="1.5" fill="#fe5d37"/>
    <circle cx="18" cy="22.5" r="1.5" fill="#fe5d37"/>
    <circle cx="22.5" cy="22.5" r="1.5" fill="#fe5d37"/>
    <circle cx="27" cy="22.5" r="1.5" fill="#fe5d37"/>
    <circle cx="31.5" cy="22.5" r="1.5" fill="#fe5d37"/>
    <circle cx="36" cy="22.5" r="1.5" fill="#FFFFFF"/>
    <circle cx="40.5" cy="22.5" r="1.5" fill="#FFFFFF"/>
    <circle cx="45" cy="22.5" r="1.5" fill="#FFFFFF"/>
    <!-- Row 6 -->
    <circle cx="0" cy="27" r="1.5" fill="#FFFFFF"/>
    <circle cx="4.5" cy="27" r="1.5" fill="#FFFFFF"/>
    <circle cx="9" cy="27" r="1.5" fill="#FFFFFF"/>
    <circle cx="13.5" cy="27" r="1.5" fill="#fe5d37"/>
    <circle cx="18" cy="27" r="1.5" fill="#fe5d37"/>
    <circle cx="22.5" cy="27" r="1.5" fill="#fe5d37"/>
    <circle cx="27" cy="27" r="1.5" fill="#fe5d37"/>
    <circle cx="31.5" cy="27" r="1.5" fill="#fe5d37"/>
    <circle cx="36" cy="27" r="1.5" fill="#FFFFFF"/>
    <circle cx="40.5" cy="27" r="1.5" fill="#FFFFFF"/>
    <circle cx="45" cy="27" r="1.5" fill="#FFFFFF"/>
    <!-- Row 7 -->
    <circle cx="0" cy="31.5" r="1.5" fill="#FFFFFF"/>
    <circle cx="4.5" cy="31.5" r="1.5" fill="#FFFFFF"/>
    <circle cx="9" cy="31.5" r="1.5" fill="#FFFFFF"/>
    <circle cx="13.5" cy="31.5" r="1.5" fill="#fe5d37"/>
    <circle cx="18" cy="31.5" r="1.5" fill="#fe5d37"/>
    <circle cx="22.5" cy="31.5" r="1.5" fill="#fe5d37"/>
    <circle cx="27" cy="31.5" r="1.5" fill="#fe5d37"/>
    <circle cx="31.5" cy="31.5" r="1.5" fill="#fe5d37"/>
    <circle cx="36" cy="31.5" r="1.5" fill="#FFFFFF"/>
    <circle cx="40.5" cy="31.5" r="1.5" fill="#FFFFFF"/>
    <circle cx="45" cy="31.5" r="1.5" fill="#FFFFFF"/>
    <!-- Row 8 -->
    <circle cx="0" cy="36" r="1.5" fill="#FFFFFF"/>
    <circle cx="4.5" cy="36" r="1.5" fill="#FFFFFF"/>
    <circle cx="9" cy="36" r="1.5" fill="#FFFFFF"/>
    <circle cx="13.5" cy="36" r="1.5" fill="#fe5d37"/>
    <circle cx="18" cy="36" r="1.5" fill="#fe5d37"/>
    <circle cx="22.5" cy="36" r="1.5" fill="#fe5d37"/>
    <circle cx="27" cy="36" r="1.5" fill="#fe5d37"/>
    <circle cx="31.5" cy="36" r="1.5" fill="#fe5d37"/>
    <circle cx="36" cy="36" r="1.5" fill="#FFFFFF"/>
    <circle cx="40.5" cy="36" r="1.5" fill="#FFFFFF"/>
    <circle cx="45" cy="36" r="1.5" fill="#FFFFFF"/>
    <!-- Row 9 (base) -->
    <circle cx="0" cy="40.5" r="1.5" fill="#FFFFFF"/>
    <circle cx="4.5" cy="40.5" r="1.5" fill="#FFFFFF"/>
    <circle cx="9" cy="40.5" r="1.5" fill="#FFFFFF"/>
    <circle cx="13.5" cy="40.5" r="1.5" fill="#FFFFFF"/>
    <circle cx="18" cy="40.5" r="1.5" fill="#FFFFFF"/>
    <circle cx="22.5" cy="40.5" r="1.5" fill="#FFFFFF"/>
    <circle cx="27" cy="40.5" r="1.5" fill="#FFFFFF"/>
    <circle cx="31.5" cy="40.5" r="1.5" fill="#FFFFFF"/>
    <circle cx="36" cy="40.5" r="1.5" fill="#FFFFFF"/>
    <circle cx="40.5" cy="40.5" r="1.5" fill="#FFFFFF"/>
    <circle cx="45" cy="40.5" r="1.5" fill="#FFFFFF"/>
  </g>
</svg>
